<?xml version="1.0" encoding="UTF-8" standalone="no"?>
<!-- Created with Inkscape (http://www.inkscape.org/) -->

<svg
   width="210mm"
   height="297mm"
   viewBox="0 0 210 297"
   version="1.1"
   id="svg1"
   xml:space="preserve"
   sodipodi:docname="logo_data_science_spikes2.svg"
   inkscape:version="1.2.2 (b0a84865, 2022-12-01)"
   xmlns:inkscape="http://www.inkscape.org/namespaces/inkscape"
   xmlns:sodipodi="http://sodipodi.sourceforge.net/DTD/sodipodi-0.dtd"
   xmlns="http://www.w3.org/2000/svg"
   xmlns:svg="http://www.w3.org/2000/svg"><sodipodi:namedview
     id="namedview1"
     pagecolor="#ffffff"
     bordercolor="#000000"
     borderopacity="0.25"
     inkscape:showpageshadow="2"
     inkscape:pageopacity="0.0"
     inkscape:pagecheckerboard="0"
     inkscape:deskcolor="#d1d1d1"
     inkscape:document-units="mm"
     inkscape:zoom="0.89887065"
     inkscape:cx="565.70987"
     inkscape:cy="562.9286"
     inkscape:window-width="1474"
     inkscape:window-height="1198"
     inkscape:window-x="1306"
     inkscape:window-y="90"
     inkscape:window-maximized="0"
     inkscape:current-layer="layer1"
     showgrid="false" /><defs
     id="defs1"><rect
       x="367.12735"
       y="794.33009"
       width="370.46487"
       height="87.888062"
       id="rect5321" /><rect
       x="367.12735"
       y="794.33009"
       width="370.46487"
       height="87.888062"
       id="rect6246" /><rect
       x="367.12735"
       y="794.33009"
       width="370.46487"
       height="87.888062"
       id="rect8184" /><rect
       x="367.12735"
       y="794.33009"
       width="370.46487"
       height="87.888062"
       id="rect8190" /><rect
       x="367.12735"
       y="794.33009"
       width="370.46487"
       height="87.888062"
       id="rect8767" /></defs><g
     inkscape:label="Calque 1"
     inkscape:groupmode="layer"
     id="layer1"><g
       id="g35"
       transform="matrix(0.37434316,0,0,0.37434316,20.883957,165.32092)"
       inkscape:export-filename="g35.png"
       inkscape:export-xdpi="96"
       inkscape:export-ydpi="96"><g
         id="g34"
         transform="matrix(1.2002703,0,0,1.3168071,-33.46271,-2.5999046)"><path
           style="opacity:1;fill:#e48564;fill-opacity:1;stroke-width:0.104233"
           d="m 155.23671,53.466444 c -0.75017,0.126855 -1.14893,1.019053 -0.86191,1.703155 0.57964,2.752624 1.35746,5.459992 2.01073,8.193333 -1.089,1.529556 -2.40726,2.920979 -3.27816,4.593254 -0.37982,0.706147 0.0661,1.755839 0.93336,1.730142 1.1196,-0.02207 1.70929,-1.175424 2.44424,-1.84581 1.73062,-1.868614 3.31602,-4.126198 5.81297,-4.990814 1.39562,-0.577342 2.95036,-0.583419 4.43145,-0.491278 3.16147,0.59622 5.81824,2.976089 7.05168,5.896348 1.03279,2.802183 0.78185,5.877181 -0.0362,8.705593 -0.15091,0.671682 -0.51424,1.738913 0.31281,2.122636 0.97516,0.324561 1.77009,-0.707951 1.97376,-1.55497 1.0257,-3.265675 1.3477,-6.887345 0.10111,-10.142193 -1.08212,-2.949152 -3.5,-5.292963 -6.2705,-6.691964 -2.73469,-1.438653 -6.07749,-1.480116 -8.89762,-0.255981 -0.83625,0.320278 -1.61217,0.792316 -2.4201,1.159324 -0.72513,-2.476666 -1.14789,-5.075221 -2.27508,-7.413881 -0.19899,-0.395523 -0.57576,-0.707647 -1.03256,-0.716894 z"
           id="path13" /><path
           style="opacity:1;fill:#e48564;fill-opacity:1;stroke-width:0.104233"
           d="m 128.1829,35.154005 c -2.35325,-0.01971 -4.67303,0.811842 -6.47929,2.319999 -0.35913,0.238781 -0.69908,0.646318 -1.10289,0.755718 -1.52223,-1.01932 -3.10236,-2.143519 -4.97907,-2.404004 -2.31004,-0.390998 -4.76421,0.380344 -6.41381,2.050333 -0.39549,0.521637 -1.04164,0.09983 -1.56551,0.09208 -2.76585,-0.309285 -5.68215,-0.08391 -8.174339,1.251902 -1.980274,0.960274 -3.601742,2.496132 -4.986894,4.176745 -0.432876,0.478779 -1.163695,0.200141 -1.729628,0.347757 -3.560932,0.326538 -6.910853,1.896094 -9.655736,4.151591 -3.945303,3.20657 -7.199032,7.592046 -8.072035,12.692726 -0.208701,1.102749 -0.276101,2.224595 -0.370338,3.340973 -3.409103,1.766057 -5.65904,5.157176 -6.867374,8.71479 -0.789921,2.565305 -0.839488,5.363551 -0.2144,7.969591 0.235477,1.178547 1.099561,2.315581 0.665081,3.554752 -0.60547,2.01227 -0.561486,4.213849 0.219723,6.173594 0.723011,2.080543 1.955443,3.987342 3.678671,5.378188 1.189792,1.063093 2.678714,1.738011 4.137258,2.323102 0.373364,0.932157 0.26842,1.991448 0.568622,2.965598 0.502144,2.3128 1.498496,4.54558 3.146044,6.27261 3.262114,3.59349 7.825321,5.80758 12.562821,6.66942 2.125183,0.37603 4.30099,0.18452 6.448062,0.20619 2.732142,-0.14336 5.413132,-0.78583 8.072492,-1.39236 1.12379,-0.25137 2.20535,-0.65929 3.32085,-0.93601 -0.53048,2.37358 -1.45424,4.6241 -2.54387,6.78683 -0.84481,1.86337 -1.87062,3.65975 -2.5433,5.59389 -0.21216,1.02872 -0.31202,2.35328 0.66782,3.03782 1.23305,1.07797 2.9179,1.41361 4.48501,1.68898 1.58798,0.18422 3.45139,-0.0464 4.4654,-1.43339 1.42503,-1.89484 2.29777,-4.13212 3.44962,-6.19197 1.84171,-3.59129 3.71189,-7.25875 6.65035,-10.09557 1.96777,-2.04572 4.14505,-3.90838 5.97072,-6.09049 1.65163,-2.26314 2.69489,-4.88565 3.68997,-7.482376 0.23003,-0.648813 1.07503,-0.677888 1.5594,-0.287816 2.31279,1.453266 4.63695,3.023912 7.34218,3.642022 4.95014,1.21256 10.56634,0.24265 14.5084,-3.088749 2.85868,-2.403853 4.63371,-6.049923 4.67212,-9.793846 -0.0379,-0.473982 0.50744,0.01183 0.73579,0.05285 2.6955,1.435446 5.78434,2.328555 8.8535,1.876798 3.72491,-0.401273 7.32483,-2.245926 9.57435,-5.283256 1.80826,-2.388184 2.46664,-5.434663 2.73327,-8.361645 0.15249,-2.787147 0.075,-5.624825 -0.75982,-8.31101 -0.96754,-3.423224 -2.54583,-6.824628 -5.32278,-9.152868 -0.90571,-0.853985 -1.99238,-1.480932 -3.01528,-2.164461 -0.81641,-1.738591 -1.15117,-3.805788 -2.60944,-5.183315 -1.46445,-1.747758 -3.79048,-2.727706 -6.06518,-2.474873 -0.76569,0.0019 -1.55228,0.325787 -2.29996,0.205687 -0.76417,-1.408144 -1.49674,-2.860336 -2.61615,-4.033477 -1.97781,-2.203492 -4.86111,-3.58471 -7.80759,-3.804605 -0.56514,-0.07442 -1.13714,0.132519 -1.68157,0.117279 -0.96735,-0.94475 -1.99462,-1.854901 -3.22296,-2.456124 -2.16478,-1.208831 -4.81205,-1.602997 -7.21013,-0.933834 -1.23072,0.354941 -2.29441,1.077444 -3.36496,1.747015 -0.45222,-0.404742 -0.75487,-1.08257 -1.25415,-1.504675 -2.03634,-2.286408 -5.19147,-3.098292 -8.14049,-3.279032 -0.36921,-0.01836 -0.73898,-0.02439 -1.10858,-0.01707 z m 0.61222,3.180598 c 2.52603,-0.04526 5.11051,0.977022 6.6759,3.009913 0.80309,0.823688 1.28638,2.025211 2.33641,2.574841 1.16232,0.324808 2.08667,-0.732274 2.96332,-1.311836 1.20941,-0.965491 2.73252,-1.574073 4.29852,-1.419969 2.133,0.06817 4.12099,1.414944 5.36361,3.111289 0.86455,1.348898 0.56275,3.027277 1.05044,4.48451 0.48259,0.666681 1.61575,0.399306 1.82141,-0.389853 0.50929,-1.119619 0.60183,-2.376839 0.57522,-3.591388 2.81559,-0.01648 5.41561,1.719133 6.97688,3.981037 0.78425,1.051282 1.09158,2.438516 2.07121,3.337719 0.99324,0.626806 2.21039,-0.0094 3.26022,-0.09452 1.43331,-0.22642 3.05993,-0.31678 4.23842,0.690883 1.43788,1.369168 1.81865,3.414614 2.41797,5.222544 0.51482,0.908381 1.55052,1.373261 2.30679,2.059829 2.78673,2.17034 4.72524,5.243401 5.62907,8.632827 1.19734,4.263954 1.32877,9.041755 -0.70065,13.073634 -1.66268,3.261506 -5.2654,5.22314 -8.88341,5.240494 -3.02639,0.06544 -5.96826,-1.213379 -8.41516,-2.898744 -1.81592,-1.327128 -3.06292,-3.254229 -4.45333,-4.987025 -0.24194,-0.377502 -0.65093,-0.791104 -0.75743,-1.177218 2.37268,-0.445239 4.59347,-1.433674 6.75512,-2.478747 1.10772,-0.619953 2.36986,-1.131686 3.19463,-2.130766 0.40867,-0.618135 0.20458,-1.800828 -0.7041,-1.744779 -1.54845,0.140989 -2.8664,1.099479 -4.30926,1.600301 -1.76634,0.79044 -3.60921,1.457724 -5.54626,1.622403 -3.85165,0.469691 -7.68448,-0.669705 -11.14843,-2.255467 -0.98773,-0.473289 -1.97616,-0.933227 -2.91559,-1.496523 1.59382,-1.205362 3.0832,-2.640904 3.91586,-4.492894 1.03712,-2.029079 1.61567,-4.29767 1.50398,-6.584122 -0.009,-2.832005 -0.51502,-5.680538 -1.55363,-8.316852 -0.26041,-0.739431 -1.04165,-1.641009 -1.89887,-1.206661 -0.83221,0.447445 -0.50098,1.514358 -0.31794,2.229659 0.79187,3.040931 1.63623,6.232139 0.96268,9.376852 -0.36415,2.009923 -1.15042,4.102489 -2.73201,5.491861 -0.75505,0.855678 -1.82964,1.50359 -3.00213,1.447207 -3.2798,0.06742 -6.63357,-0.661188 -9.41843,-2.467567 -2.74543,-2.037702 -4.90468,-4.78323 -7.75885,-6.684579 -2.33755,-1.49906 -5.1102,-2.192679 -7.8726,-2.199476 -2.19796,-0.05517 -4.55668,-2.64e-4 -6.5043,1.147194 -0.67994,0.364519 -1.06007,1.345231 -0.4553,1.94641 0.45328,0.507571 1.22966,0.09423 1.79912,0.09555 2.20141,-0.374565 4.46345,-0.239318 6.67252,-0.105077 2.68178,0.422402 5.15945,1.72805 7.13719,3.582721 1.30742,1.184423 2.68028,2.368819 3.91646,3.590065 -1.19982,1.562002 -2.82992,2.783168 -3.85481,4.476787 -0.44703,0.790723 0.41912,1.773391 1.2661,1.49924 1.49842,-0.451951 2.4896,-1.794592 3.52492,-2.885673 0.43226,-0.437279 0.81037,-1.047729 1.33826,-1.333585 2.59466,1.040403 5.23566,1.980629 7.95617,2.642706 4.33311,1.120172 8.00982,3.918792 12.32068,5.128046 1.34978,0.39506 2.74723,0.580795 4.13683,0.772438 1.77728,2.509917 3.74465,4.905708 5.40323,7.486851 0.47562,1.000567 0.18438,2.168501 0.23172,3.232025 -0.19308,3.330845 -2.4867,6.36732 -5.42702,7.904549 -3.05215,1.599978 -6.72337,2.0633 -10.0445,1.132398 -2.46368,-0.729184 -4.50875,-2.347182 -6.68313,-3.640005 -1.43457,-0.63413 -2.98513,0.03388 -4.28613,0.675227 -2.21153,1.085914 -4.5994,1.991156 -7.10127,1.944174 -2.97465,0.123302 -5.98109,-0.537636 -8.69515,-1.776587 -0.89126,-0.468026 -1.93556,-1.000799 -2.40199,-1.938586 1.00103,-0.474472 2.1675,-0.551987 3.23777,-0.858649 1.52876,-0.402143 3.12029,-0.5807 4.61617,-1.092232 0.86687,-0.356553 0.82328,-1.810486 -0.0797,-2.107393 -1.07262,-0.463026 -2.30133,-0.234688 -3.43264,-0.176022 -2.91242,0.493424 -5.72966,1.430546 -8.60069,2.113378 -1.86987,0.46946 -3.74432,1.021236 -5.69189,0.927713 -2.10999,0.03884 -4.52442,-0.243562 -5.947364,-1.997355 -1.587704,-1.864138 -2.322404,-4.599659 -1.391505,-6.942293 0.894684,-2.447891 2.614829,-4.464625 3.786099,-6.766325 0.50248,-1.151916 -0.49856,-2.176502 -0.73339,-3.253949 -0.4367,-1.183399 -0.3494,-2.45105 -0.61015,-3.66032 -0.362968,-0.847378 -1.685035,-0.607785 -1.87893,0.241268 -0.324771,1.507043 -0.08144,3.111733 0.384159,4.565812 0.09429,0.439203 0.470278,0.885674 0.425577,1.302208 -1.441204,2.413698 -3.190489,4.737835 -3.931446,7.489192 -0.51993,2.342756 -0.237617,4.83956 0.792969,7.007942 0.06702,0.325953 0.542089,0.904819 -0.05305,0.999426 -2.066991,0.708851 -4.161825,1.334448 -6.275687,1.866411 -1.635067,0.440206 -3.563069,0.658789 -5.035285,-0.378349 -1.628902,-1.208278 -3.172381,-2.880603 -3.419631,-4.993878 -0.243943,-1.530099 -0.138044,-3.349479 1.091702,-4.451173 0.44767,-0.272669 0.855734,0.340675 1.214475,0.535993 0.564713,0.365043 1.098756,0.985118 1.803318,1.021988 0.785392,-0.222052 1.140806,-1.176145 0.727056,-1.868765 -0.934728,-1.721575 -2.427501,-3.064772 -3.844234,-4.386959 -1.105577,-0.871357 -2.202058,-2.003544 -3.658674,-2.208397 -0.856734,-0.155126 -1.437511,0.818671 -1.081135,1.551476 0.798682,1.095143 2.102387,1.752902 2.893396,2.850103 -0.363887,0.818446 -1.090877,1.480232 -1.431962,2.341139 -0.94288,1.842929 -0.937782,4.069485 -0.343292,6.018368 0.649727,2.037853 1.940727,3.814207 3.502549,5.253985 -1.460572,1.056637 -3.39634,1.44531 -5.133515,1.051256 -1.759021,-0.525817 -3.151237,-1.843212 -4.406659,-3.119012 -1.189233,-1.335058 -2.164411,-3.038962 -1.999329,-4.889603 -2.14e-4,-0.521721 7.94e-4,-1.044107 0.03503,-1.564894 1.120812,0.397391 2.23928,1.014423 3.451341,1.013854 0.730652,-0.05425 1.354579,-0.816046 0.989669,-1.526881 -0.464736,-1.123116 -1.781281,-1.423773 -2.604969,-2.209631 -1.496753,-1.193122 -2.061186,-3.188567 -2.280904,-4.988991 -0.164647,-2.50286 0.764776,-4.945404 1.893898,-7.134815 0.813353,-1.473335 1.913152,-2.895409 3.451953,-3.631837 0.574344,0.06233 1.024628,0.607017 1.523958,0.894643 0.758563,0.492964 1.598054,1.502476 2.603219,1.046687 0.750274,-0.307507 0.792536,-1.324319 0.29278,-1.878031 -0.729022,-1.058625 -1.921878,-1.969802 -1.956864,-3.358536 -0.268988,-3.211375 1.068824,-6.36314 2.805589,-9.014347 1.25857,-1.858856 2.927202,-3.439017 4.726591,-4.776795 2.418543,-1.649071 5.209384,-3.039568 8.19582,-3.021041 0.122471,1.401955 -0.08066,2.891816 0.428266,4.230232 0.261974,0.751581 1.351936,1.240883 1.902915,0.496562 0.452501,-0.700728 0.194312,-1.631752 0.315457,-2.41594 0.05839,-1.653719 0.0613,-3.554968 1.257361,-4.825375 1.710838,-1.920169 4.163888,-3.190909 6.704308,-3.5111 1.79911,-0.147138 3.59448,0.04433 5.38941,0.177242 0.84862,-0.199176 1.40234,-1.015416 2.13545,-1.449848 0.76849,-0.619112 1.68899,-1.09709 2.71229,-1.066094 2.02129,-0.119068 3.73653,1.320046 4.8396,2.885467 1.35607,1.991002 1.29193,4.648914 0.52144,6.857486 -0.44257,1.5977 -1.279,3.028704 -1.84445,4.573611 -0.17263,0.718738 0.58545,1.433955 1.30167,1.208784 1.24096,-0.267751 1.72367,-1.631889 2.27752,-2.619402 1.58036,-3.175838 2.23548,-6.997935 1.00816,-10.401183 -0.0637,-0.700937 0.69803,-1.109157 1.13419,-1.535015 1.46646,-1.069668 3.36348,-1.229664 5.11502,-1.277485 z M 97.852559,93.527419 c 2.119111,0.60901 4.158901,1.801765 6.444131,1.669163 2.48878,0.0052 4.92455,-0.620646 7.36794,-0.926658 0.68969,0.03326 0.88028,0.884029 1.37591,1.250328 1.42155,1.519817 3.17491,2.71253 5.02737,3.626268 -0.44188,2.65982 -1.44887,5.3774 -3.55679,7.17534 -1.35273,1.15772 -2.82969,2.27124 -4.57441,2.73291 -3.35188,1.1814 -6.86872,1.90979 -10.390022,2.22452 -3.968924,0.27044 -8.050755,-0.18046 -11.76592,-1.69562 -3.917558,-1.59379 -7.135042,-5.09006 -7.999788,-9.26312 -0.132038,-0.646821 -0.140899,-1.308922 -0.151225,-1.966335 1.880655,-0.519343 3.652118,-1.426451 5.106686,-2.73526 1.651063,0.324165 3.369291,0.194993 5.019894,-0.06585 2.704208,-0.664986 5.360593,-1.502601 8.096224,-2.025682 z M 131.25761,99.0142 c -1.14704,3.29128 -3.65685,5.85871 -6.20205,8.14053 -2.62553,2.44101 -5.13393,5.09372 -6.78102,8.31277 -1.34559,2.41241 -2.72178,4.81389 -3.9464,7.28331 -0.62915,1.04602 -1.16081,2.2107 -2.0706,3.04849 -1.35853,0.2233 -2.77795,-0.16098 -3.95177,-0.83194 -0.29145,-0.30728 0.19151,-0.7201 0.25286,-1.04963 1.59416,-3.26004 2.94578,-6.63475 4.27047,-10.01134 0.57687,-1.42596 0.80589,-3.11009 2.10069,-4.1038 2.05795,-1.68167 3.92925,-3.73243 4.78513,-6.2974 0.46434,-1.24912 0.74681,-2.55418 1.06955,-3.844222 2.86721,0.382402 5.82999,0.522862 8.67436,-0.09012 0.63257,-0.166836 1.22517,-0.447485 1.8378,-0.670473 l -0.0337,0.09844 z"
           id="path14" /><path
           style="opacity:1;fill:#e48564;fill-opacity:1;stroke-width:0.104233"
           d="m 112.78195,45.551122 c -3.74719,0.309104 -6.97181,2.741488 -9.28549,5.5691 -2.38792,2.918807 -3.874657,6.507594 -4.523132,10.203003 -0.250851,0.2765 -0.686186,-0.131734 -0.995767,-0.132929 -2.736715,-0.74503 -5.577866,0.479803 -7.668972,2.216946 -0.31102,0.203917 -0.724569,0.679857 -1.053491,0.239847 -1.809912,-1.483241 -2.52145,-3.918164 -2.521432,-6.187821 -0.0013,-0.629007 -0.514159,-1.492697 -1.242726,-1.198213 -1.212549,0.569706 -1.218277,2.120093 -1.151631,3.266398 0.121965,2.342996 1.150641,4.574913 2.744017,6.282737 0.361892,0.495644 0.997027,0.888072 0.822773,1.586246 0.08733,2.337456 0.01905,4.767707 0.837395,6.993718 0.262059,0.739302 1.291876,1.264955 1.9084,0.609166 0.416721,-0.615574 0.124653,-1.448567 0.148585,-2.144789 -0.192241,-1.948741 -0.616493,-4.025606 0.244927,-5.87216 0.74421,-1.370954 2.229131,-2.168363 3.66781,-2.649688 1.797323,-0.568079 3.772586,-0.301165 5.448974,0.59128 0.53103,0.281893 1.13144,-0.132564 1.14832,-0.709893 0.5168,-2.732611 1.17851,-5.463593 2.45486,-7.948951 1.47192,-2.883297 3.73862,-5.415632 6.54739,-7.033175 1.15627,-0.619617 2.4455,-0.915088 3.69586,-1.288867 0.96642,-0.314029 0.97561,-1.812555 0.0547,-2.183615 -0.39659,-0.190034 -0.84809,-0.22104 -1.28135,-0.20834 z"
           id="path15" /><path
           style="opacity:1;fill:#e48564;fill-opacity:1;stroke-width:0.104233"
           d="m 132.07268,44.134405 c -0.97317,0.183494 -1.22734,1.349626 -1.5094,2.150694 -0.41792,1.473727 -0.23364,3.036978 -0.20408,4.547307 0.41358,2.159989 1.57591,4.158109 3.09351,5.734642 0.60744,0.613836 1.38562,1.511015 2.35404,1.115195 0.82772,-0.271473 0.8831,-1.405218 0.2805,-1.940314 -1.68898,-1.917305 -3.40693,-4.161797 -3.50927,-6.828697 -0.0415,-1.308767 0.51028,-2.537738 0.5366,-3.831844 -0.11195,-0.475853 -0.50725,-0.97491 -1.0419,-0.946983 z"
           id="path16" /><path
           style="display:inline;opacity:1;fill:#e48564;fill-opacity:1;stroke-width:0.104233"
           d="m 112.67341,67.613286 c -0.94676,0.07242 -1.18409,1.194856 -1.1415,1.970802 -0.10693,2.656689 0.44499,5.285248 1.21955,7.81227 -2.17761,0.693237 -4.33122,1.651778 -6.16506,3.041166 -0.66229,0.472672 -1.2486,1.530313 -0.5303,2.206175 0.48482,0.488786 1.21932,0.423622 1.75169,0.05264 2.40347,-1.248897 5.02016,-2.471669 7.79669,-2.252557 2.49951,0.165812 4.91857,0.933448 7.35201,1.524315 3.11849,0.989664 6.22094,2.049923 9.22054,3.33619 4.1752,1.780103 7.93753,4.648136 12.49514,5.429787 2.37135,0.400182 4.92935,0.446637 7.17234,-0.524664 0.74765,-0.332645 1.59062,-1.276046 1.00533,-2.09418 -0.61381,-0.554934 -1.55811,-0.252137 -2.29758,-0.210669 -2.57838,0.554498 -5.24643,0.456676 -7.72636,-0.485695 -2.15801,-0.79407 -4.08195,-2.011172 -6.05633,-3.123774 -0.26015,-0.237583 -0.79972,-0.337781 -0.88904,-0.692828 0.79707,-0.501824 1.74108,-0.786783 2.52049,-1.34612 0.98435,-0.686192 2.13059,-1.32719 2.72665,-2.405436 0.3195,-0.874437 -0.71203,-1.757272 -1.53013,-1.312037 -2.13973,1.023308 -4.10253,2.770005 -6.60316,2.767058 -1.92236,0.166722 -3.79812,-0.373682 -5.60012,-1.037932 -3.75819,-1.19104 -7.63168,-1.974871 -11.41199,-3.065555 -0.89077,-0.165097 -0.89558,-1.216149 -1.13643,-1.897224 -0.56631,-2.109628 -0.86769,-4.273584 -1.12829,-6.436812 -0.0838,-0.562766 -0.3522,-1.282697 -1.04414,-1.254924 z"
           id="path17" /></g><path
         style="opacity:1;fill:#3573b5;fill-opacity:1;stroke-width:0.294815"
         d="m 103.71785,34.182071 c -2.86889,0.39656 -4.438335,3.16081 -5.17126,5.69672 -1.485509,4.59874 -3.273772,9.81942 -1.000332,14.48356 0.973074,1.72133 2.063094,3.45291 1.971347,5.52655 0.42131,5.8434 3.686895,11.71484 9.240435,14.061 6.86559,3.21094 14.68776,1.67633 21.6641,-0.31563 4.19821,-0.90865 8.81191,-2.62874 13.0394,-1.00205 4.74976,3.09836 6.92021,9.07099 6.97844,14.56289 0.0428,4.60382 -1.79968,10.03775 -6.55186,11.65905 -6.78046,2.465759 -13.84667,-0.64819 -20.13828,-3.10202 -8.17482,-3.24409 -15.90167,-7.46742 -23.46516,-11.92092 -5.272455,-2.92143 -11.690982,-5.37626 -17.644247,-3.02153 -7.480345,2.73934 -11.453082,10.85268 -11.951388,18.41011 -0.727451,11.190479 4.257167,22.415709 12.311568,30.078979 3.852375,3.5065 8.681063,6.07119 13.777573,7.14031 5.827774,0.6985 11.903194,0.31044 17.269544,-2.24328 8.49689,-3.54394 15.85197,-9.41576 24.51677,-12.57372 3.16899,-0.86492 6.70536,-1.24251 9.87456,-0.22134 4.96525,2.20085 6.03539,9.57615 2.16796,13.28086 -5.46058,5.42653 -13.03897,7.87751 -19.06805,12.5569 -5.98948,4.24278 -11.29484,10.08519 -13.04264,17.38524 -0.96193,4.93054 -0.42243,10.07756 1.39628,14.754 0.13254,0.53953 0.36624,0.82766 0.2307,0.0688 -0.96697,-6.41012 -1.73736,-13.48541 1.73367,-19.32848 4.49347,-7.91875 12.79597,-12.5907 20.61687,-16.66626 0.36656,-0.0559 1.3425,-0.83503 1.54362,-0.49557 -7.42163,4.77992 -16.08406,8.71001 -20.83567,16.55781 -3.99139,5.83332 -3.45625,13.23431 -2.47557,19.87553 0.31587,3.5329 0.29445,0.2613 0.34744,-1.50901 0.31291,-5.89737 -0.42495,-12.55882 3.44754,-17.52774 5.79406,-8.27691 15.68811,-11.8264 24.04743,-16.80776 4.99878,-2.86441 9.89737,-7.36593 10.43876,-13.43736 0.90894,-7.05347 -4.23596,-14.30083 -11.31756,-15.47354 -7.532,-1.46791 -14.92867,1.70394 -21.35809,5.32816 -7.86622,4.08133 -15.75407,9.71156 -25.01022,9.49401 -9.087665,-0.37847 -16.356121,-7.6494 -19.764624,-15.62893 -1.699302,-3.65385 -2.651517,-7.64218 -2.363679,-11.68763 -0.34426,-4.352709 0.93367,-9.105929 4.291909,-12.056889 3.491193,-2.71713 8.307163,-0.91668 11.673999,1.09979 11.418555,6.81412 23.149185,13.491779 35.999845,17.191639 7.04479,1.96832 15.30097,1.66379 21.15538,-3.17663 3.7091,-2.81402 6.35589,-6.839589 7.48755,-11.352049 1.13371,-4.77773 0.98583,-9.9113 -0.23973,-14.6612 -2.00537,-7.72949 -7.36456,-15.37697 -15.46377,-17.38514 -6.36466,-1.19126 -12.75288,0.5335 -18.87418,2.15246 -3.98786,0.75943 -8.58082,1.98081 -12.35,-0.15352 -2.75735,-1.85918 -2.34998,-5.72335 -1.95755,-8.58849 1.95156,-5.15297 -0.20193,-10.73785 -2.47784,-15.40742 -1.20617,-2.00053 -2.2325,-4.55608 -4.45148,-5.61221 -0.0821,-0.0156 -0.16651,-0.0149 -0.24951,-0.008 z m 5.0695,12.4116 c 1.24683,0.77187 1.11383,2.72352 1.15962,4.02468 -0.10669,1.16003 -0.28736,2.8955 -1.47639,3.42492 -1.45792,-1.38357 -1.47361,-3.86254 -0.94054,-5.70649 0.28166,-0.59748 0.55237,-1.54566 1.25731,-1.74311 z m -10.047016,0.54731 c 1.896176,0.60969 2.353106,3.09165 2.372056,4.84759 -0.0569,0.99198 -0.25324,2.04005 -0.779,2.86704 -2.167977,-1.89692 -2.634978,-5.12108 -1.739083,-7.70831 0.04804,-0.008 0.09697,-0.0189 0.146027,-0.006 z m 6.280826,12.27822 c 1.01386,2.45088 1.19367,5.48541 3.36434,7.35992 4.39404,3.8221 10.72671,3.19324 15.99497,1.9702 6.36064,-1.25864 12.95213,-4.03322 19.48465,-2.27662 4.50278,1.3223 7.77073,5.41073 9.26745,9.68196 -1.41631,-1.17082 -2.13567,-3.23688 -3.5782,-4.50438 -3.32158,-3.82296 -8.7659,-4.89985 -13.55738,-3.82311 -7.5757,1.33872 -15.38935,4.60069 -23.11747,2.36631 -3.67926,-1.01939 -6.73793,-3.99643 -7.44213,-7.80662 -0.0943,-0.90842 -0.7411,-2.13492 -0.41623,-2.96766 z m 5.31729,4.48598 c 1.33416,-0.0349 1.20754,2.16998 -0.12246,1.85464 -1.13683,-0.22541 -1.03606,-1.75112 0.12246,-1.85464 z m 41.69606,4.65212 c 0.86212,0.18221 -0.3097,1.14057 -0.31735,0.25928 0.0272,-0.14745 0.16685,-0.26318 0.31735,-0.25928 z m 4.28878,11.18591 c 0.65653,0.48376 -0.78847,0.96603 -0.25583,0.18799 0.0695,-0.0708 0.14473,-0.18224 0.25583,-0.18799 z m -68.412424,3.95936 c 6.439152,0.28447 11.794797,4.46399 17.257744,7.41187 9.39775,5.1865 19.11023,10.170909 29.58256,12.767259 3.35144,0.81089 6.92365,0.65523 10.19707,-0.21846 -0.84346,0.98484 -2.56857,0.89225 -3.7731,1.22972 -7.30206,0.87986 -14.26704,-2.35767 -20.92247,-4.88726 -8.42234,-3.381799 -16.18695,-8.104849 -24.041896,-12.587969 -4.151005,-2.39935 -9.625208,-3.80876 -13.973058,-1.066 -5.223801,3.22672 -6.802006,9.76555 -7.638174,15.344759 -0.04329,-5.984989 1.72744,-12.699089 7.013826,-16.154229 1.859312,-1.21891 4.078303,-1.84555 6.297498,-1.83969 z m 70.305004,2.51578 c 0.86212,0.18221 -0.30969,1.14057 -0.31734,0.25928 0.0272,-0.14746 0.16685,-0.26318 0.31734,-0.25928 z m -46.32863,6.5769 c 0.79416,0.12674 0.18334,0.92271 -0.1834,0.33057 -0.0647,-0.1368 -0.006,-0.36757 0.1834,-0.33057 z m 41.04757,0.19317 c 0.65536,0.21237 -0.57994,1.09364 -0.31447,0.19777 0.0526,-0.12145 0.18321,-0.20019 0.31447,-0.19777 z m -5.44665,4.70961 c 1.16638,0.27189 -0.28861,1.59659 -0.66861,0.56341 -0.0547,-0.35673 0.36573,-0.5723 0.66861,-0.56341 z m 2.78024,0.29435 c 0.86212,0.18221 -0.3097,1.14057 -0.31735,0.25929 0.0272,-0.14746 0.16686,-0.26319 0.31735,-0.25929 z m 5.46619,0.29493 c 0.65653,0.48377 -0.78847,0.96603 -0.25584,0.18799 0.0695,-0.0708 0.14474,-0.18224 0.25584,-0.18799 z m -26.77501,0.98366 c 0.79416,0.12674 0.18335,0.922709 -0.18339,0.33057 -0.0647,-0.1368 -0.006,-0.36757 0.18339,-0.33057 z m -10.18672,1.959269 c 0.86212,0.18221 -0.3097,1.14057 -0.31734,0.25929 0.0272,-0.14746 0.16685,-0.26319 0.31734,-0.25929 z m -42.517021,6.47572 c 1.169945,0.32089 -0.250545,2.05805 -0.699659,0.76175 -0.110157,-0.41888 0.301098,-0.77889 0.699659,-0.76175 z m 0.4421,8.24182 c 0.655367,0.21238 -0.579935,1.09364 -0.314471,0.19777 0.05264,-0.12144 0.183222,-0.20019 0.314471,-0.19777 z m 2.926262,0 c 0.862121,0.18221 -0.309697,1.14057 -0.317346,0.25929 0.02716,-0.14746 0.166854,-0.26319 0.317346,-0.25929 z m 64.131109,1.21362 c 4.31528,-0.26164 9.03951,1.54936 10.9755,5.65131 0.37109,0.82943 1.14495,2.02707 0.93536,2.84693 -1.25954,-2.4168 -2.6191,-5.05422 -5.23277,-6.27566 -2.93854,-1.81073 -6.54748,-1.10586 -9.80959,-1.02447 -6.16554,0.89824 -11.32598,4.78648 -16.74366,7.58436 -5.94278,3.15166 -11.98863,6.93625 -18.84692,7.50687 -4.59607,0.40426 -9.387265,0.003 -13.462525,-2.33986 -3.91673,-2.00419 -7.291949,-5.1214 -9.780842,-8.72072 0.0089,-0.5922 0.658784,-0.0133 0.696209,0.30125 3.228787,3.65586 7.024272,6.96227 11.718094,8.54725 6.379764,2.41753 13.675144,1.35977 19.714204,-1.56274 7.93226,-3.51656 15.03415,-8.7838 23.24049,-11.68665 2.13351,-0.65264 4.37831,-0.7946 6.59645,-0.82787 z m 14.46056,8.49996 c 0.86212,0.18221 -0.30969,1.14057 -0.31734,0.25928 0.0272,-0.14745 0.16685,-0.26318 0.31734,-0.25928 z m -4.71076,7.06442 c 1.24468,5.3e-4 0.26352,1.7766 -0.49614,0.84281 -0.31959,-0.36272 0.0584,-0.88371 0.49614,-0.84281 z m -51.51025,2.35481 c 0.86213,0.18221 -0.30969,1.14057 -0.31734,0.25928 0.0272,-0.14746 0.16685,-0.26318 0.31734,-0.25928 z m 45.31279,5.00396 c 0.90815,0.33872 -0.30872,1.04585 -0.16155,0.0558 0.0417,-0.0422 0.10412,-0.0565 0.16155,-0.0558 z"
         id="path34" /></g><text
       xml:space="preserve"
       transform="matrix(0.26458333,0,0,0.26458333,-13.834489,2.9435084)"
       id="text5319"
       style="font-style:normal;font-variant:normal;font-weight:normal;font-stretch:normal;font-size:24px;line-height:1.25;font-family:sans-serif;-inkscape-font-specification:'sans-serif, Normal';font-variant-ligatures:normal;font-variant-caps:normal;font-variant-numeric:normal;font-variant-east-asian:normal;white-space:pre;shape-inside:url(#rect5321);display:inline;fill:#3573b5;fill-opacity:1;stroke:none"><tspan
         x="367.12695"
         y="815.56445"
         id="tspan8815">DATA SCIENCE</tspan></text><text
       xml:space="preserve"
       transform="matrix(0.26458333,0,0,0.26458333,-14.232492,9.4192259)"
       id="text6244"
       style="font-style:normal;font-variant:normal;font-weight:normal;font-stretch:normal;font-size:24px;line-height:1.25;font-family:sans-serif;-inkscape-font-specification:'sans-serif, Normal';font-variant-ligatures:normal;font-variant-caps:normal;font-variant-numeric:normal;font-variant-east-asian:normal;white-space:pre;shape-inside:url(#rect6246);display:inline;fill:#e48564;fill-opacity:1;stroke:none"
       inkscape:export-filename="g35.png"
       inkscape:export-xdpi="40.736515"
       inkscape:export-ydpi="40.736515"><tspan
         x="367.12695"
         y="815.56445"
         id="tspan8817">&amp; SPIKES</tspan></text></g></svg>
